<svg width="183" height="47" viewBox="0 0 183 47" fill="none" xmlns="http://www.w3.org/2000/svg">
<g clip-path="url(#clip0_216_10637)">
<path d="M90.9172 11.8028L94.9062 6.30859H83.7859L79.7969 11.8028H90.9172Z" fill="#C0293E"/>
<path d="M94.9066 42.6105L81.7349 24.4766L90.1107 12.9074H78.9903L76.1662 16.8131L68.5405 6.30859H47.1521C39.265 6.30859 32.5599 11.3587 30.071 18.4073V6.30859H20.5815V19.6656H9.48952V6.30859H0V42.5308H9.48952V29.1738H20.5871V42.5308H30.0767V30.5117C32.5655 37.5603 39.2707 42.6105 47.1578 42.6105H57.4883L54.3062 47.0002H58.0054C62.6649 47.0002 67.046 44.7626 69.7849 40.9821L76.1889 32.1401L83.7919 42.6105H94.9123H94.9066ZM58.9203 40.6291V33.0852H48.1749C44.7542 33.0852 41.7539 31.5309 40.0094 29.1738H50.9593V19.6656H40.0719C41.8221 17.354 44.7996 15.8339 48.1749 15.8339H58.9203V8.36965L70.6145 24.4766L58.9203 40.6291Z" fill="#2C315B"/>
<path d="M95.6282 5.20388L99.3956 0H94.4008C90.5538 0 86.9399 1.8447 84.6783 4.96475L84.5078 5.20388H95.6282Z" fill="#C0293E"/>
<path d="M166.618 5.59668C156.68 5.59668 150.332 13.7783 150.139 23.6337C148.054 20.36 144.241 18.6064 140.087 18.6064C136.587 18.6064 134.302 19.9273 132.427 21.3506C132.882 16.8812 134.962 13.7783 139.121 13.7783C141.962 13.7783 143.991 14.843 146.173 16.4713L150.787 9.50813C147.389 6.96882 143.94 5.59668 138.968 5.59668C127.859 5.59668 122.483 14.0345 122.483 25.1084V25.2109C122.483 25.3133 122.483 25.4158 122.483 25.5183C120.875 22.8594 117.954 21.3734 114.613 20.6333L123.08 13.3683V6.30837H97.4184V14.285H111.011L102.845 21.6524L104.266 26.7823H108.425C112.13 26.7823 114.204 28.1544 114.204 30.4432V30.5457C114.204 32.732 112.431 34.1554 109.641 34.1554C106.396 34.1554 103.709 32.6807 101.174 30.0902L94.9863 36.2904C98.4355 40.0994 103.254 42.5932 110.101 42.5932C116.949 42.5932 122.46 38.9493 123.574 33.085C124.336 35.3909 125.466 37.1502 126.842 38.528C129.376 41.0673 132.672 42.5932 137.695 42.5932C144.633 42.5932 150.435 38.7273 151.583 32.2025C153.986 38.3173 159.242 42.5932 166.504 42.5932C176.647 42.5932 182.989 34.1554 182.989 24.0949V23.9924C182.989 13.932 176.698 5.59668 166.607 5.59668H166.618ZM142.894 30.3407C142.894 32.9313 141.07 34.9126 137.973 34.9126C134.876 34.9126 132.95 32.88 132.95 30.2895V30.187C132.95 27.6477 134.774 25.6663 137.871 25.6663C140.968 25.6663 142.894 27.6989 142.894 30.2382V30.3407ZM173.107 24.1917C173.107 29.834 170.573 33.8479 166.618 33.8479C162.663 33.8479 160.026 29.7828 160.026 24.0892V23.9867C160.026 18.2932 162.612 14.3305 166.516 14.3305C170.42 14.3305 173.107 18.447 173.107 24.0892V24.1917Z" fill="#C0293E"/>
</g>
<defs>
<clipPath id="clip0_216_10637">
<rect width="183" height="47" fill="white"/>
</clipPath>
</defs>
</svg>
